<svg xmlns="http://www.w3.org/2000/svg" viewBox="0 0 238 84.03"><defs><style>.cls-1{fill:#fff;}</style></defs><g id="レイヤー_2" data-name="レイヤー 2"><g id="header"><path class="cls-1" d="M11.22,82H8.05L7.41,84H6.06l3-8.63h1.06l3,8.63H11.87Zm-.36-1.16L9.65,77.09h0L8.42,80.87Z"/><path class="cls-1" d="M18.14,83.32A2,2,0,0,1,16.6,84a1.9,1.9,0,0,1-.92-.23,1.94,1.94,0,0,1-.67-.57,1.59,1.59,0,0,1-.33-.79,9.31,9.31,0,0,1-.09-1.56,9.51,9.51,0,0,1,.09-1.58,1.66,1.66,0,0,1,.33-.76,1.82,1.82,0,0,1,1.59-.8,1.86,1.86,0,0,1,.85.19,3.74,3.74,0,0,1,.69.53V75.33h1.2V84h-1.2ZM17,79a1.16,1.16,0,0,0-.65.15.87.87,0,0,0-.36.44,2.63,2.63,0,0,0-.15.6c0,.24,0,.47,0,.72s0,.46,0,.68a2.65,2.65,0,0,0,.15.63,1,1,0,0,0,.36.44,1.07,1.07,0,0,0,.65.17,1.13,1.13,0,0,0,.67-.18.89.89,0,0,0,.34-.45,2.33,2.33,0,0,0,.15-.63c0-.22,0-.44,0-.66s0-.47,0-.68a2.37,2.37,0,0,0-.15-.61.85.85,0,0,0-.34-.45A1.21,1.21,0,0,0,17,79Z"/><path class="cls-1" d="M20.4,77.81h1.26l1.4,4.31h0l1.39-4.31h1.28L23.56,84h-1Z"/><path class="cls-1" d="M30.11,83.41h0a1,1,0,0,1-.52.47,2.38,2.38,0,0,1-.95.15,2.15,2.15,0,0,1-1.53-.54,1.75,1.75,0,0,1-.57-1.34A1.77,1.77,0,0,1,27,80.87a1.9,1.9,0,0,1,1.45-.53h1.65v-.65c0-.55-.4-.81-1.22-.79a2.16,2.16,0,0,0-.7.09.93.93,0,0,0-.43.38l-.94-.74a2.3,2.3,0,0,1,2-.89,3.12,3.12,0,0,1,1.8.44,1.81,1.81,0,0,1,.68,1.58V84h-1.2v-.55Zm0-2.06H28.68c-.7,0-1,.27-1,.74a.68.68,0,0,0,.27.54,1.26,1.26,0,0,0,.86.24,2,2,0,0,0,1.06-.18c.19-.13.28-.43.28-.89v-.45Z"/><path class="cls-1" d="M33.41,77.81h1.2v.65h0a1.9,1.9,0,0,1,1.55-.72,2,2,0,0,1,1.35.53,2.16,2.16,0,0,1,.64,1.6V84H37V80.29a1.35,1.35,0,0,0-.33-1,1.22,1.22,0,0,0-1.69,0,1.31,1.31,0,0,0-.34,1V84h-1.2V77.81Z"/><path class="cls-1" d="M44.67,83a3.16,3.16,0,0,1-.92.75,2.54,2.54,0,0,1-1.22.31,2.65,2.65,0,0,1-1.85-.74,3.15,3.15,0,0,1-.85-2.4,3.22,3.22,0,0,1,.85-2.42,2.56,2.56,0,0,1,1.85-.73,2.65,2.65,0,0,1,1.22.29,3.11,3.11,0,0,1,.92.78l-.88.81A1.48,1.48,0,0,0,42.58,79c-1,0-1.54.62-1.55,1.92s.53,1.93,1.55,1.91a1.47,1.47,0,0,0,1.21-.64Z"/><path class="cls-1" d="M46.93,81.35a1.46,1.46,0,0,0,.42,1.13,1.34,1.34,0,0,0,1,.39,1.76,1.76,0,0,0,1.3-.6l.86.77a2.74,2.74,0,0,1-2.14,1,3.21,3.21,0,0,1-.92-.14,1.9,1.9,0,0,1-.43-.21,2.36,2.36,0,0,1-.42-.28,2.41,2.41,0,0,1-.61-1,3.71,3.71,0,0,1-.26-1.54A4.38,4.38,0,0,1,46,79.39a2.65,2.65,0,0,1,.57-1,2.12,2.12,0,0,1,.8-.52,2.42,2.42,0,0,1,.86-.16,2.38,2.38,0,0,1,1.73.69,2.56,2.56,0,0,1,.72,1.91v1Zm2.52-1a1.64,1.64,0,0,0-.37-1.09,1.18,1.18,0,0,0-.89-.35,1.15,1.15,0,0,0-.88.35,1.69,1.69,0,0,0-.38,1.09Z"/><path class="cls-1" d="M56,83.32a2,2,0,0,1-1.54.71,1.94,1.94,0,0,1-.93-.23,2,2,0,0,1-.67-.57,1.59,1.59,0,0,1-.32-.79,8.11,8.11,0,0,1-.1-1.56,8.28,8.28,0,0,1,.1-1.58,1.55,1.55,0,0,1,.32-.76,1.83,1.83,0,0,1,1.6-.8,1.85,1.85,0,0,1,.84.19,3.8,3.8,0,0,1,.7.53V75.33h1.19V84H56v-.64ZM54.84,79a1.18,1.18,0,0,0-.65.15.93.93,0,0,0-.36.44,2.2,2.2,0,0,0-.14.6c0,.24,0,.47,0,.72s0,.46,0,.68a2.25,2.25,0,0,0,.14.63,1,1,0,0,0,.36.44,1.09,1.09,0,0,0,.65.17,1.11,1.11,0,0,0,.67-.18.84.84,0,0,0,.34-.45,2.32,2.32,0,0,0,.16-.63c0-.22,0-.44,0-.66s0-.47,0-.68a2.38,2.38,0,0,0-.16-.61.81.81,0,0,0-.34-.45A1.18,1.18,0,0,0,54.84,79Z"/><path class="cls-1" d="M62.49,75.33h3.27a2.5,2.5,0,0,1,1.7.57,2.31,2.31,0,0,1,.83,1.84,2.39,2.39,0,0,1-1.61,2.39L68.61,84h-1.5l-1.73-3.69H63.76V84H62.49V75.33Zm1.27,3.78h1.92a1.37,1.37,0,0,0,1.07-.43,1.36,1.36,0,0,0,.35-1,1.19,1.19,0,0,0-.42-1,1.49,1.49,0,0,0-.93-.26h-2Z"/><path class="cls-1" d="M71,81.35a1.46,1.46,0,0,0,.42,1.13,1.34,1.34,0,0,0,1,.39,1.76,1.76,0,0,0,1.3-.6l.87.77a2.78,2.78,0,0,1-2.15,1,3.21,3.21,0,0,1-.92-.14,2.13,2.13,0,0,1-.43-.21,2.36,2.36,0,0,1-.42-.28,2.41,2.41,0,0,1-.61-1,3.71,3.71,0,0,1-.26-1.54,4.38,4.38,0,0,1,.22-1.51,2.53,2.53,0,0,1,.58-1,2,2,0,0,1,.79-.52,2.42,2.42,0,0,1,.86-.16,2.38,2.38,0,0,1,1.73.69,2.61,2.61,0,0,1,.73,1.91v1Zm2.52-1a1.64,1.64,0,0,0-.37-1.09,1.18,1.18,0,0,0-.89-.35,1.15,1.15,0,0,0-.88.35A1.69,1.69,0,0,0,71,80.34Z"/><path class="cls-1" d="M76.74,82.08a2.45,2.45,0,0,0,1.89.79,1.57,1.57,0,0,0,.85-.21.66.66,0,0,0,.32-.58.51.51,0,0,0-.19-.46,1,1,0,0,0-.54-.15l-1-.09a2,2,0,0,1-1.23-.52,1.63,1.63,0,0,1-.49-1.23A1.68,1.68,0,0,1,77,78.21a2.47,2.47,0,0,1,1.57-.47,4.24,4.24,0,0,1,.74.05,3.62,3.62,0,0,1,.61.17,3.38,3.38,0,0,1,1,.62l-.74.89a3.54,3.54,0,0,0-.73-.42,2.33,2.33,0,0,0-.87-.15,1.21,1.21,0,0,0-.79.2.68.68,0,0,0-.24.54.4.4,0,0,0,.18.36,1.06,1.06,0,0,0,.61.22l1,.08a1.78,1.78,0,0,1,1.34.58A2,2,0,0,1,81,82.14a1.62,1.62,0,0,1-.71,1.38,3,3,0,0,1-1.76.51,3.74,3.74,0,0,1-2.62-1.1Z"/><path class="cls-1" d="M83.65,81.35a1.46,1.46,0,0,0,.42,1.13,1.34,1.34,0,0,0,1,.39,1.76,1.76,0,0,0,1.3-.6l.86.77a2.74,2.74,0,0,1-2.14,1,3.21,3.21,0,0,1-.92-.14,1.9,1.9,0,0,1-.43-.21,2.36,2.36,0,0,1-.42-.28,2.41,2.41,0,0,1-.61-1,3.71,3.71,0,0,1-.26-1.54,4.38,4.38,0,0,1,.22-1.51,2.65,2.65,0,0,1,.57-1,2.12,2.12,0,0,1,.8-.52,2.42,2.42,0,0,1,.86-.16,2.38,2.38,0,0,1,1.73.69,2.56,2.56,0,0,1,.72,1.91v1Zm2.52-1a1.64,1.64,0,0,0-.37-1.09,1.18,1.18,0,0,0-.89-.35,1.15,1.15,0,0,0-.88.35,1.69,1.69,0,0,0-.38,1.09Z"/><path class="cls-1" d="M92.3,83.41h0a1,1,0,0,1-.51.47,2.47,2.47,0,0,1-1,.15,2.15,2.15,0,0,1-1.53-.54,1.75,1.75,0,0,1-.57-1.34,1.77,1.77,0,0,1,.49-1.28,1.9,1.9,0,0,1,1.45-.53H92.3v-.65c0-.55-.4-.81-1.22-.79a2.16,2.16,0,0,0-.7.09.93.93,0,0,0-.43.38L89,78.63a2.3,2.3,0,0,1,2-.89,3.12,3.12,0,0,1,1.8.44,1.81,1.81,0,0,1,.68,1.58V84H92.3v-.55Zm0-2.06H90.87c-.7,0-1,.27-1,.74a.68.68,0,0,0,.27.54,1.26,1.26,0,0,0,.86.24A2,2,0,0,0,92,82.69c.19-.13.28-.43.28-.89v-.45Z"/><path class="cls-1" d="M95.6,77.81h1.2v.65h0a1.92,1.92,0,0,1,1.55-.72,1.83,1.83,0,0,1,1.25.47l-.87,1.07A1.19,1.19,0,0,0,98,79a1.09,1.09,0,0,0-.79.31,1.2,1.2,0,0,0-.38,1V84H95.6Z"/><path class="cls-1" d="M104.85,83a3.16,3.16,0,0,1-.92.75,2.54,2.54,0,0,1-1.22.31,2.65,2.65,0,0,1-1.85-.74,3.15,3.15,0,0,1-.85-2.4,3.22,3.22,0,0,1,.85-2.42,2.56,2.56,0,0,1,1.85-.73,2.65,2.65,0,0,1,1.22.29,3.11,3.11,0,0,1,.92.78l-.89.81a1.45,1.45,0,0,0-1.21-.65c-1,0-1.53.62-1.54,1.92s.53,1.93,1.54,1.91a1.44,1.44,0,0,0,1.21-.64Z"/><path class="cls-1" d="M106.21,75.33h1.2v3.13h0a1.9,1.9,0,0,1,1.55-.72,2,2,0,0,1,1.35.53,2.16,2.16,0,0,1,.64,1.6V84h-1.2V80.29a1.35,1.35,0,0,0-.33-1,1.22,1.22,0,0,0-1.69,0,1.31,1.31,0,0,0-.34,1V84h-1.2V75.33Z"/><path class="cls-1" d="M121,83.09a5.53,5.53,0,0,1-1.1.66,3.09,3.09,0,0,1-1.25.28,2.57,2.57,0,0,1-1.92-.8,2.63,2.63,0,0,1-.74-1.85,2.81,2.81,0,0,1,1.65-2.52,3.18,3.18,0,0,1-.5-.79,1.87,1.87,0,0,1-.21-.85,2,2,0,0,1,.51-1.38,1.74,1.74,0,0,1,1.36-.58,1.76,1.76,0,0,1,1.37.58,2,2,0,0,1,.51,1.38,2.13,2.13,0,0,1-1.39,1.93l1.78,2.22a4.83,4.83,0,0,0,.73-1.45l1.07.44a6.08,6.08,0,0,1-.46,1,4.93,4.93,0,0,1-.64.89L123.21,84H121.8Zm-2.73-3.41c-.83.49-1.24,1-1.23,1.69a1.5,1.5,0,0,0,.48,1.11,1.45,1.45,0,0,0,1.09.46,2.54,2.54,0,0,0,1.69-.76ZM118,77.17a.91.91,0,0,0,.19.54,2.25,2.25,0,0,0,.43.57,2.52,2.52,0,0,0,.82-.51,1,1,0,0,0,.21-.6.84.84,0,0,0-.23-.59.78.78,0,0,0-.6-.23.76.76,0,0,0-.58.23A.81.81,0,0,0,118,77.17Z"/><path class="cls-1" d="M128,75.33h1.27V84H128Z"/><path class="cls-1" d="M131.34,77.81h1.19v.65h0a1.9,1.9,0,0,1,1.54-.72,2,2,0,0,1,1.35.53,2.12,2.12,0,0,1,.64,1.6V84H134.9V80.29a1.35,1.35,0,0,0-.34-1,1.09,1.09,0,0,0-.84-.34,1.13,1.13,0,0,0-.85.34,1.35,1.35,0,0,0-.34,1V84h-1.19V77.81Z"/><path class="cls-1" d="M138.4,78.76h-.6v-1h.6V77a1.66,1.66,0,0,1,.47-1.29,1.78,1.78,0,0,1,1.16-.38h.77v1.16h-.68c-.37,0-.54.16-.52.51v.81h1.2v1h-1.2V84h-1.2v-5.2Z"/><path class="cls-1" d="M141.65,80.88a5.62,5.62,0,0,1,.15-1.49,2.22,2.22,0,0,1,.5-.86A2.07,2.07,0,0,1,143,78a2.53,2.53,0,0,1,1.11-.24,2.69,2.69,0,0,1,1.15.24,2.15,2.15,0,0,1,.66.55,1.9,1.9,0,0,1,.5.86,5.68,5.68,0,0,1,.15,1.49,5.54,5.54,0,0,1-.15,1.48,2.09,2.09,0,0,1-.5.88,2.42,2.42,0,0,1-.28.27,1.25,1.25,0,0,1-.39.25,2.34,2.34,0,0,1-1.14.27,2.27,2.27,0,0,1-1.11-.27,2,2,0,0,1-.69-.52,2.46,2.46,0,0,1-.5-.88A5.54,5.54,0,0,1,141.65,80.88Zm3.71,0a5.44,5.44,0,0,0-.06-1,1.08,1.08,0,0,0-.23-.51.91.91,0,0,0-.39-.33,1.34,1.34,0,0,0-.58-.12,1.31,1.31,0,0,0-.56.12,1.08,1.08,0,0,0-.4.33,1.48,1.48,0,0,0-.23.51,5.17,5.17,0,0,0-.07.95,5,5,0,0,0,.07.94,1.5,1.5,0,0,0,.23.53,1.45,1.45,0,0,0,.4.32,1.18,1.18,0,0,0,.56.13,1.21,1.21,0,0,0,.58-.13,1.16,1.16,0,0,0,.39-.32,1.1,1.1,0,0,0,.23-.53A5.2,5.2,0,0,0,145.36,80.89Z"/><path class="cls-1" d="M148.37,77.81h1.2v.65h0a1.92,1.92,0,0,1,1.55-.72,1.85,1.85,0,0,1,1.25.47l-.87,1.07a1.22,1.22,0,0,0-.79-.31,1.07,1.07,0,0,0-.78.31,1.17,1.17,0,0,0-.38,1V84h-1.2Z"/><path class="cls-1" d="M153.4,77.81h1.2v.65h0a2,2,0,0,1,1.61-.72,2.16,2.16,0,0,1,1,.22,2.74,2.74,0,0,1,.7.58,2.44,2.44,0,0,1,1.94-.8,2.15,2.15,0,0,1,1.4.53,2.09,2.09,0,0,1,.65,1.6V84h-1.2V80.29a1.31,1.31,0,0,0-.34-1,1.19,1.19,0,0,0-.89-.34,1.21,1.21,0,0,0-.89.34,1.32,1.32,0,0,0-.35,1V84h-1.2V80.29a1.31,1.31,0,0,0-.34-1,1.33,1.33,0,0,0-1.78,0,1.28,1.28,0,0,0-.36,1V84h-1.2V77.81Z"/><path class="cls-1" d="M167.27,83.41h0a1,1,0,0,1-.52.47,2.42,2.42,0,0,1-.95.15,2.15,2.15,0,0,1-1.53-.54,1.75,1.75,0,0,1-.57-1.34,1.77,1.77,0,0,1,.49-1.28,1.9,1.9,0,0,1,1.45-.53h1.65v-.65c0-.55-.4-.81-1.22-.79a2.16,2.16,0,0,0-.7.09.93.93,0,0,0-.43.38l-.94-.74a2.3,2.3,0,0,1,2-.89,3.12,3.12,0,0,1,1.8.44,1.81,1.81,0,0,1,.68,1.58V84h-1.2v-.55Zm0-2.06h-1.43c-.7,0-1,.27-1,.74a.68.68,0,0,0,.27.54,1.26,1.26,0,0,0,.86.24,2,2,0,0,0,1.06-.18c.19-.13.28-.43.28-.89v-.45Z"/><path class="cls-1" d="M170.64,75.94h1.2v1.87h.87v1h-.87v3.58c0,.31.13.47.42.46h.45V84h-.62a1.41,1.41,0,0,1-1-.4,1.45,1.45,0,0,1-.42-1.12V78.76H170v-1h.6V75.94Z"/><path class="cls-1" d="M174.34,75.33h1.2v1.23h-1.2Zm0,2.48h1.2V84h-1.2Z"/><path class="cls-1" d="M177.28,80.88a5.62,5.62,0,0,1,.15-1.49,2.22,2.22,0,0,1,.5-.86,2.07,2.07,0,0,1,.69-.55,2.53,2.53,0,0,1,1.11-.24,2.69,2.69,0,0,1,1.15.24,2.15,2.15,0,0,1,.66.55,1.9,1.9,0,0,1,.5.86,5.68,5.68,0,0,1,.15,1.49,5.54,5.54,0,0,1-.15,1.48,2.09,2.09,0,0,1-.5.88,2.42,2.42,0,0,1-.28.27,1.25,1.25,0,0,1-.39.25,2.34,2.34,0,0,1-1.14.27,2.27,2.27,0,0,1-1.11-.27,2,2,0,0,1-.69-.52,2.46,2.46,0,0,1-.5-.88A5.54,5.54,0,0,1,177.28,80.88Zm3.71,0a5.44,5.44,0,0,0-.06-1,1.08,1.08,0,0,0-.23-.51.91.91,0,0,0-.39-.33,1.34,1.34,0,0,0-.58-.12,1.31,1.31,0,0,0-.56.12,1.08,1.08,0,0,0-.4.33,1.48,1.48,0,0,0-.23.51,5.17,5.17,0,0,0-.07.95,5,5,0,0,0,.07.94,1.5,1.5,0,0,0,.23.53,1.45,1.45,0,0,0,.4.32,1.18,1.18,0,0,0,.56.13,1.21,1.21,0,0,0,.58-.13,1.16,1.16,0,0,0,.39-.32,1.1,1.1,0,0,0,.23-.53A5.2,5.2,0,0,0,181,80.89Z"/><path class="cls-1" d="M184,77.81h1.2v.65h0a1.9,1.9,0,0,1,1.55-.72,2,2,0,0,1,1.35.53,2.16,2.16,0,0,1,.63,1.6V84h-1.19V80.29a1.35,1.35,0,0,0-.33-1,1.12,1.12,0,0,0-.85-.34,1.15,1.15,0,0,0-.85.34,1.35,1.35,0,0,0-.33,1V84H184V77.81Z"/><path class="cls-1" d="M194.36,81.87a3.63,3.63,0,0,0,2.37.86c1.09,0,1.64-.42,1.66-1.2s-.36-1-1.09-1.17l-1.11-.16a2.65,2.65,0,0,1-1.64-.82,2.32,2.32,0,0,1-.58-1.6A2.38,2.38,0,0,1,194.7,76a2.73,2.73,0,0,1,2-.7,4.58,4.58,0,0,1,2.71.89l-.71,1.07a3.76,3.76,0,0,0-2.07-.66,1.59,1.59,0,0,0-1,.3,1.12,1.12,0,0,0-.41.94.94.94,0,0,0,.28.67,1.52,1.52,0,0,0,.9.43l.94.14a2.6,2.6,0,0,1,1.74.87,2.5,2.5,0,0,1,.55,1.61c0,1.65-1,2.49-2.93,2.51a4.63,4.63,0,0,1-3.19-1.18Z"/><path class="cls-1" d="M202.37,81.35a1.45,1.45,0,0,0,.41,1.13,1.34,1.34,0,0,0,1,.39,1.76,1.76,0,0,0,1.3-.6L206,83a2.76,2.76,0,0,1-2.15,1,3.14,3.14,0,0,1-.91-.14,2,2,0,0,1-.44-.21,2.36,2.36,0,0,1-.42-.28,2.52,2.52,0,0,1-.61-1,3.88,3.88,0,0,1-.26-1.54,4.36,4.36,0,0,1,.23-1.51,2.52,2.52,0,0,1,.57-1,2,2,0,0,1,.8-.52,2.46,2.46,0,0,1,2.58.53,2.57,2.57,0,0,1,.73,1.91v1Zm2.51-1a1.59,1.59,0,0,0-.37-1.09,1.18,1.18,0,0,0-.89-.35,1.15,1.15,0,0,0-.88.35,1.64,1.64,0,0,0-.37,1.09Z"/><path class="cls-1" d="M207.89,77.81h1.2v.65h0a1.92,1.92,0,0,1,1.55-.72,1.83,1.83,0,0,1,1.25.47L211,79.28a1.22,1.22,0,0,0-.79-.31,1.09,1.09,0,0,0-.78.31,1.2,1.2,0,0,0-.38,1V84h-1.2V77.81Z"/><path class="cls-1" d="M212.13,77.81h1.26l1.4,4.31h0l1.4-4.31h1.27L215.3,84h-1Z"/><path class="cls-1" d="M218.76,75.33H220v1.23h-1.19Zm0,2.48H220V84h-1.19Z"/><path class="cls-1" d="M226.37,83a3.16,3.16,0,0,1-.92.75,2.54,2.54,0,0,1-1.22.31,2.65,2.65,0,0,1-1.85-.74,3.15,3.15,0,0,1-.85-2.4,3.22,3.22,0,0,1,.85-2.42,2.56,2.56,0,0,1,1.85-.73,2.62,2.62,0,0,1,1.22.29,3,3,0,0,1,.92.78l-.88.81a1.46,1.46,0,0,0-1.21-.65c-1,0-1.54.62-1.55,1.92s.53,1.93,1.55,1.91a1.47,1.47,0,0,0,1.21-.64Z"/><path class="cls-1" d="M228.63,81.35a1.46,1.46,0,0,0,.42,1.13,1.34,1.34,0,0,0,1,.39,1.76,1.76,0,0,0,1.3-.6l.87.77a2.78,2.78,0,0,1-2.15,1,3.09,3.09,0,0,1-.91-.14,2,2,0,0,1-.44-.21,2.36,2.36,0,0,1-.42-.28,2.41,2.41,0,0,1-.61-1,3.88,3.88,0,0,1-.26-1.54,4.38,4.38,0,0,1,.22-1.51,2.53,2.53,0,0,1,.58-1,2,2,0,0,1,.79-.52,2.42,2.42,0,0,1,.86-.16,2.38,2.38,0,0,1,1.73.69,2.57,2.57,0,0,1,.73,1.91v1Zm2.52-1a1.59,1.59,0,0,0-.37-1.09,1.18,1.18,0,0,0-.89-.35,1.15,1.15,0,0,0-.88.35,1.69,1.69,0,0,0-.38,1.09Z"/><polygon class="cls-1" points="114.21 0 113.16 0 112.1 0 81 61.08 91.02 61.08 113.16 15.81 135.3 61.08 145.31 61.08 114.21 0"/><rect class="cls-1" x="186.89" width="8.43" height="61.08"/><polygon class="cls-1" points="167.72 37.1 167.72 51.33 175.71 61.82 183.95 57.18 167.72 37.1"/><path class="cls-1" d="M167.72,26.69v9.22c.39,0,11.9-1.75,11.9-17.95s-15-18-16.93-18H147.75V61.08h8.44V8.19h7.75c.83,0,6.54,3.87,6.54,10.54S167.72,26.69,167.72,26.69Z"/><path class="cls-1" d="M231.37,14S225.79,7.84,220,7.84s-10.46,3.47-10.46,8.83,5.85,7.25,10.06,8.56S238,29.85,238,42.63s-9.71,18.54-19.11,18.54a21.41,21.41,0,0,1-19.41-11.6l6.23-5s3.78,8.39,13,8.39,10.78-6.46,10.78-10.11-4.39-7.38-10.78-8.83-18.12-5.84-18.12-17.17S209.71,0,219.9,0s16.69,8,16.69,8Z"/><path class="cls-1" d="M32.83,57.33a3.61,3.61,0,0,1-1.7-.43,3.67,3.67,0,0,1-1.56-5l12.08-23.1a3.69,3.69,0,1,1,6.54,3.42L36.11,55.35A3.7,3.7,0,0,1,32.83,57.33Z"/><path class="cls-1" d="M16.44,46.85a18.43,18.43,0,0,1-13.3-6.72C1.06,37.48-1.06,32.92.59,26.2S10.86,5.39,11.84,3.8a3.69,3.69,0,1,1,6.28,3.87c-2.49,4-9.2,15.57-10.36,20.29C7,31.08,7.38,33.57,9,35.57a11.33,11.33,0,0,0,7.49,3.9c2.89,0,4.94-.48,5.91-1.39,3.08-2.86,9.14-14.75,12.24-21.58a3.69,3.69,0,0,1,6.72,3.05c-.88,1.95-8.77,19.14-13.93,23.94C24.94,45.75,21.37,46.85,16.44,46.85Z"/><path class="cls-1" d="M16.43,34.41a3.65,3.65,0,0,1-1.59-.36,3.69,3.69,0,0,1-1.73-4.92C14,27.34,21.6,11.47,26,6.17,28.6,3.13,33.87,2,38,2a20.44,20.44,0,0,1,7.5,1.34,3.69,3.69,0,1,1-2.87,6.8h0A13.78,13.78,0,0,0,38,9.42c-3.3,0-5.79,1-6.25,1.5C28.44,14.8,22,27.68,19.76,32.31A3.67,3.67,0,0,1,16.43,34.41Z"/><path class="cls-1" d="M46.05,59.44a3.7,3.7,0,0,1-3.17-5.57c7.46-12.63,10.91-21.31,11-23.45.11-3.32-4.19-7.16-5.7-8.24a3.69,3.69,0,0,1,4.27-6c.93.66,9.06,6.65,8.8,14.5-.21,6.7-10,23.63-12,27A3.69,3.69,0,0,1,46.05,59.44Z"/></g></g></svg>