<svg xmlns="http://www.w3.org/2000/svg" viewBox="0 0 280 160"><defs><style>.cls-1{fill:#fff;}.cls-2{fill:#2a7ecf;}</style></defs><g id="レイヤー_2" data-name="レイヤー 2"><g id="subject"><rect class="cls-1" width="280" height="160"/><path class="cls-2" d="M157.93,132a81.69,81.69,0,0,1-8.67-2.09,31.73,31.73,0,0,1-21.2-29.85c-.17-16,12.48-30,28.42-31.76a31.86,31.86,0,0,1,7.25,63.3,15.91,15.91,0,0,0-1.89.4Zm-22-32.14a24.12,24.12,0,1,0,24.17-24A24.21,24.21,0,0,0,135.91,99.86Z"/><path class="cls-2" d="M124.33,32c2.18.28,4.38.49,6.55.87,5.23.92,10.26,2.35,14.4,6a7.48,7.48,0,0,1,2.93,5.31,71.19,71.19,0,0,1,0,7.59c-.18,3.33-2.42,5.38-5,7a32.53,32.53,0,0,1-14.52,4.72c-8.19.88-16.26.43-23.89-3a24.71,24.71,0,0,1-5.11-3.16,7.63,7.63,0,0,1-3.14-6.79,22.35,22.35,0,0,0,0-4.09c-.46-4.36,1.81-7.17,5.23-9.28a34.91,34.91,0,0,1,15.72-4.72c1-.08,1.91-.27,2.86-.41Zm-2,20.21c2.52-.22,5.14-.1,7.55-.75a52.86,52.86,0,0,0,10.9-3.93c3.4-1.78,3.22-3.58.11-5.8a10,10,0,0,0-1.83-1.11c-9.71-4.34-19.67-4.49-29.68-1.37-2.46.76-4.66,2.44-6.86,3.88-1.19.78-1.17,2-.08,3a17.06,17.06,0,0,0,3.43,2.53C111,51.25,116.59,52.09,122.33,52.21Z"/><path class="cls-2" d="M134.06,73.49l-5,6.32a4.1,4.1,0,0,0-.86,1.29c-.81,3.05-3,3.33-5.7,3.23-6-.24-12-.77-17.48-3.38a26.52,26.52,0,0,1-5.29-3.24,7.74,7.74,0,0,1-3.16-6.78c.14-2.2,0-4.41,0-6.72,5.7,7.85,14.14,9.34,22.76,9.9C124.27,74.43,129.21,73.73,134.06,73.49Z"/><path class="cls-2" d="M96.63,104.28C101.15,111.1,108,113,115.05,114a72,72,0,0,0,9.53.45,2,2,0,0,1,2.06,1.27c1.45,2.67,3.08,5.23,4.84,8.16-2.72.23-5.33.56-7.95.63a41.67,41.67,0,0,1-18.65-3.32,25.27,25.27,0,0,1-5.54-3.56,7.38,7.38,0,0,1-2.73-6.19C96.71,109.19,96.63,106.91,96.63,104.28Z"/><path class="cls-2" d="M123.26,104.41c-8,0-15.5-1.12-22.17-5.47-2.94-1.92-4.76-4.54-4.48-8.31.14-2,0-4,0-6.44a35.19,35.19,0,0,0,2.25,2.89c3.15,3.26,7.23,4.87,11.5,5.82,3.66.8,7.45,1,11.18,1.51l1.7.18Z"/><path class="cls-2" d="M169,88.57l-3.77,6.07h4.67v3.2h-4.21c-3.36,0-3.78.51-3.22,4.08h7.42v3.66h-7.56v5.89h-4.5V105.7h-7.49V102h7.08c.84-3.48.32-4.16-3-4.16h-4.14V94.72h4.57l-3.66-6.07c2.93-.75,3.28-.61,4.74,1.68,1.31,2.06,2.64,4.12,4.1,6.39,1.33-2.09,2.62-3.82,3.6-5.72C164.72,88.81,166.18,87.69,169,88.57Z"/></g></g></svg>