<svg xmlns="http://www.w3.org/2000/svg" viewBox="0 0 260 275"><defs><style>.cls-1{fill:#fff;}.cls-2{fill:#2a7ecf;}</style></defs><g id="レイヤー_2" data-name="レイヤー 2"><g id="subject"><rect class="cls-1" width="260" height="275"/><path class="cls-2" d="M62.92,181.52v-7.34c3.65-4.66,7.4-9.25,10.91-14a8.59,8.59,0,0,0,1.65-4.68c.11-19.57.07-39.13.07-58.69,0-5.49,1.73-7.28,7.15-7.28q47.3,0,94.58,0c5.4,0,7.16,1.82,7.17,7.26,0,19.56,0,39.13.07,58.69a8.63,8.63,0,0,0,1.64,4.69c3.51,4.77,7.26,9.37,10.92,14V182c-1.32,2.88-3.75,3.47-6.65,3.46q-60.51,0-121,0C66.33,185.51,63.94,184.71,62.92,181.52ZM83.05,97.23v53.13h93.89V97.23Zm59.46,83.2v-6.67h-25v6.67Z"/><path class="cls-2" d="M139.42,122.53l2.48.47c0,4.06.22,8.06-.07,12-.2,2.75-2.28,4.4-5.26,4.5q-6.54.24-13.09,0c-3.39-.13-5.3-2.07-5.47-5.5s0-7.14,0-10.87l2.71-.76c.09-3.84.12-8,3.86-10.38a12.33,12.33,0,0,1,6.36-1.68C136.19,110.37,138.43,113.74,139.42,122.53Zm-14.21.21c3,0,5.64.06,8.32,0a1.83,1.83,0,0,0,1.33-1.13c.23-2.28.34-4.86-1.9-6.09a7.35,7.35,0,0,0-5.08-.5c-2.42.67-2.89,3-2.82,5.31C125.08,121,125.14,121.65,125.21,122.74Z"/></g></g></svg>