<svg xmlns="http://www.w3.org/2000/svg" viewBox="0 0 260 275"><defs><style>.cls-1{fill:#fff;}.cls-2{fill:#2a7ecf;}</style></defs><g id="レイヤー_2" data-name="レイヤー 2"><g id="subject"><rect class="cls-1" width="260" height="275"/><path class="cls-2" d="M128.53,73.34h3c4.36,1.38,7.81,3.75,9,8.44a41.59,41.59,0,0,1,.65,4.32c4.26,0,8.42,0,12.58,0,.73,0,2,0,2.11.3.89,2.18,2.7,1.45,4.22,1.51,2.17.07,4.35,0,6.52,0,7.57.12,12.86,5.17,12.88,12.76q.1,44,0,87.92c0,4.36-1.53,8.26-5.41,10.7a37.5,37.5,0,0,1-5.47,2.34H90.94c-7.89-2.47-10.77-8-10.5-16,.32-9.76.08-19.54.08-29.31q0-27.18,0-54.37c0-9,5-14,13.9-14,2.43,0,4.85,0,7.27,0,.61,0,1.68-.15,1.76-.46.52-1.79,1.9-1.33,3.07-1.34,4.14,0,8.28,0,12.21,0a47.91,47.91,0,0,1,1.19-5.49C121.31,76.5,124.68,74.6,128.53,73.34Zm-25.17,21.6H95.12c-5.75,0-7.41,1.68-7.41,7.49v84.68c0,5.79,1.46,7.25,7.27,7.25h70.16c5.72,0,7.23-1.53,7.23-7.31V102.37c0-.75,0-1.51-.05-2.25-.23-2.76-1.69-4.68-4.45-4.88-3.71-.28-7.45-.07-11.16-.07-1.55,6.13-2.21,6.64-8.54,6.64H110.59c-4.71,0-6.07-1.14-6.91-5.69C103.62,95.8,103.51,95.5,103.36,94.94ZM130,86.1a5.13,5.13,0,0,0,1.24,0c1-.23,2.7-.56,2.7-.83A6.43,6.43,0,0,0,133,81.6a3.85,3.85,0,0,0-6.06.11,6.85,6.85,0,0,0-.78,3.68c0,.23,1.66.5,2.57.69A6.38,6.38,0,0,0,130,86.1Z"/><path class="cls-2" d="M156.48,117.17v5.52H103.7v-5.52Z"/><path class="cls-2" d="M103.58,156.38v-5.56h52.78v5.56Z"/><path class="cls-2" d="M103.58,139.36v-5.52h52.83v5.52Z"/><path class="cls-2" d="M130.32,172.29H156.4v5.6H130.32Z"/></g></g></svg>