<svg xmlns="http://www.w3.org/2000/svg" viewBox="0 0 280 160"><defs><style>.cls-1{fill:#fff;}.cls-2{fill:#2a7ecf;}</style></defs><g id="レイヤー_2" data-name="レイヤー 2"><g id="subject"><rect class="cls-1" width="280" height="160"/><path class="cls-2" d="M138.12,120.84c-2.67-.23-5.35-.33-8-.71-4.48-.65-9-1.29-13.4-2.28-7.23-1.61-11.78-6.33-13.8-13.33-2.5-8.65-1.7-17.06,3.76-24.39,2.61-3.5,6.19-6.33,9.51-9.25a91.9,91.9,0,0,0,19.47-24.81,24.81,24.81,0,0,0,1.39-3.85c0-.15.06-.32.11-.48.72-2.65,2.91-4.79,5.11-5s4.57,1.43,5.71,4.19c2,4.88,1.53,9.79-.26,14.58a50.91,50.91,0,0,1-3.22,6.22c-.7,1.3-1.6,2.5-2.18,3.84a4.49,4.49,0,0,0,2.6,6.33,21.94,21.94,0,0,0,6.25,1c4.22.15,8.44,0,12.66,0a7.34,7.34,0,0,1,6,2.49c3,3.69,1.26,8.19-4,9.68,3.26,1.53,5,4,4.41,7.47-.49,3.13-2.66,4.77-6,5.58,2.79,1.64,3.62,3.91,2.84,6.74s-2.87,4.26-5.64,4.84a23.61,23.61,0,0,1,.59,2.92,6.18,6.18,0,0,1-5.36,6.76c-2.86.44-5.75.71-8.62,1.07-.49.06-1,.2-1.43.3Z"/></g></g></svg>