<svg xmlns="http://www.w3.org/2000/svg" viewBox="0 0 260 275"><defs><style>.cls-1{fill:#fff;}.cls-2{fill:#2a7ecf;}</style></defs><g id="レイヤー_2" data-name="レイヤー 2"><g id="subject"><rect class="cls-1" width="260" height="275"/><path class="cls-2" d="M150.73,202.73c-3.78-.89-7.68-1.43-11.31-2.73a41.37,41.37,0,0,1-27.66-38.94c-.23-20.92,16.28-39.18,37.07-41.43a41.68,41.68,0,0,1,46.13,44c-1,19.68-17,36.5-36.66,38.61a23.63,23.63,0,0,0-2.47.53ZM122,160.81a31.47,31.47,0,1,0,31.53-31.32A31.56,31.56,0,0,0,122,160.81Z"/><path class="cls-2" d="M106.89,72.27c2.85.37,5.72.63,8.54,1.13,6.83,1.2,13.4,3.07,18.8,7.77,2.13,1.86,3.67,4.07,3.82,6.92a96.35,96.35,0,0,1,0,9.91c-.24,4.34-3.16,7-6.51,9.19-5.74,3.73-12.23,5.42-18.94,6.15-10.67,1.15-21.2.56-31.16-4a32,32,0,0,1-6.66-4.13,9.92,9.92,0,0,1-4.1-8.85,29.88,29.88,0,0,0,0-5.35c-.6-5.68,2.36-9.35,6.82-12.09,6.27-3.87,13.23-5.55,20.51-6.16,1.25-.1,2.49-.36,3.73-.54Zm-2.61,26.37c3.29-.29,6.71-.13,9.85-1a69.21,69.21,0,0,0,14.23-5.13c4.42-2.33,4.19-4.67.14-7.57a14.18,14.18,0,0,0-2.39-1.44c-12.67-5.66-25.66-5.87-38.72-1.8-3.21,1-6.08,3.19-9,5.08-1.55,1-1.53,2.65-.11,3.89A22.53,22.53,0,0,0,82.8,94C89.54,97.38,96.8,98.49,104.28,98.64Z"/><path class="cls-2" d="M119.59,126.4c-2,2.55-4.25,5.39-6.48,8.24a5.46,5.46,0,0,0-1.13,1.68c-1.06,4-4,4.36-7.44,4.22-7.85-.31-15.6-1-22.81-4.4a35.24,35.24,0,0,1-6.89-4.24,10,10,0,0,1-4.12-8.85c.18-2.86,0-5.75,0-8.76,7.42,10.25,18.45,12.18,29.69,12.92C106.81,127.62,113.26,126.71,119.59,126.4Z"/><path class="cls-2" d="M70.76,166.57c5.9,8.89,14.77,11.3,24,12.7a93.42,93.42,0,0,0,12.42.59,2.63,2.63,0,0,1,2.69,1.66c1.9,3.48,4,6.83,6.32,10.65-3.55.29-7,.72-10.37.82-8.4.24-16.62-.85-24.33-4.34A32.84,32.84,0,0,1,74.29,184a9.59,9.59,0,0,1-3.56-8.08C70.85,173,70.76,170,70.76,166.57Z"/><path class="cls-2" d="M105.49,166.74c-10.42,0-20.22-1.46-28.92-7.14-3.83-2.5-6.21-5.93-5.85-10.84.19-2.62,0-5.26,0-8.41a46.89,46.89,0,0,0,2.94,3.78c4.11,4.25,9.43,6.36,15,7.58,4.78,1.06,9.72,1.35,14.59,2,.74.1,1.49.16,2.21.23Z"/><path class="cls-2" d="M165.11,146.07,160.19,154h6.09v4.17h-5.49c-4.39,0-4.94.66-4.21,5.32h9.68v4.77H156.4V176h-5.87v-7.53h-9.77v-4.83H150c1.1-4.54.42-5.42-3.88-5.42h-5.4v-4.08h6l-4.77-7.92c3.81-1,4.27-.79,6.18,2.2,1.71,2.69,3.45,5.37,5.34,8.33,1.74-2.73,3.43-5,4.7-7.46C159.58,146.39,161.5,144.92,165.11,146.07Z"/></g></g></svg>