<svg xmlns="http://www.w3.org/2000/svg" viewBox="0 0 280 160"><defs><style>.cls-1{fill:#fff;}.cls-2{fill:#2a7ecf;}</style></defs><g id="レイヤー_2" data-name="レイヤー 2"><g id="subject"><rect class="cls-1" width="280" height="160"/><path class="cls-2" d="M109.47,119h-1.6a34.78,34.78,0,0,1-3.76-1.6c-2.19-1.26-2.9-3.54-3.61-5.77V110a13,13,0,0,1,3.77-6.34c4.83-4.67,9.54-9.48,14.31-14.22.55-.55,1-1,.44-1.87a32.93,32.93,0,0,1-4.12-20.8A33.8,33.8,0,0,1,141,38c1.87-.41,3.77-.66,5.65-1h3.85c1.25.22,2.5.46,3.76.65,13,2,24.48,12.69,27.24,25.58.41,1.92.69,3.87,1,5.8v3.85c-.1.46-.24.92-.3,1.38-1.62,13.1-8.36,22.59-20.45,27.86-10,4.38-20.07,3.71-29.71-1.55a1.39,1.39,0,0,0-2,.35c-4.51,4.55-9.08,9-13.55,13.63C114.47,116.6,112.42,118.49,109.47,119Zm39-27.1a20.92,20.92,0,1,0-20.83-21A20.77,20.77,0,0,0,148.43,91.9Z"/></g></g></svg>