<svg xmlns="http://www.w3.org/2000/svg" viewBox="0 0 280 160"><defs><style>.cls-1{fill:#fff;}.cls-2{fill:#2a7ecf;}</style></defs><g id="レイヤー_2" data-name="レイヤー 2"><g id="subject"><rect class="cls-1" width="280" height="160"/><path class="cls-2" d="M194.5,114.52V121c-1.09,2.37-3.09,2.85-5.48,2.85q-49.82,0-99.64,0c-2.54,0-4.51-.65-5.36-3.28v-6c3-3.84,6.1-7.62,9-11.54a7.08,7.08,0,0,0,1.36-3.86c.09-16.11.06-32.22.06-48.33,0-4.52,1.42-6,5.89-6q38.94,0,77.87,0c4.45,0,5.9,1.5,5.9,6,0,16.11,0,32.22.06,48.32a7,7,0,0,0,1.36,3.86C188.4,106.9,191.49,110.68,194.5,114.52ZM100.6,94.91h77.25V51.17H100.6Zm28.32,24.68h20.65v-5.42H128.92Z"/><path class="cls-2" d="M164.39,82a14.51,14.51,0,0,1-1.75-.61,3.38,3.38,0,0,0-3.72.33c-1.54,1-2.34,2-2,3.76.22,1.35-.47,2-1.75,2.17s-2,.15-2.57-1.19c-1.56-3.48-4.36-4-7.14-1.48a1.87,1.87,0,0,1-2.79.22c-1-.73-1.65-1.57-.9-2.66,1.62-2.36-.16-3.91-1.27-5.52-.34-.49-1.55-.55-2.35-.52-1.45.06-2.24-.36-2.55-1.89s.31-2.08,1.5-2.64c3-1.42,3.61-4.39,1.37-6.9-.82-.93-1.12-1.68-.32-2.82a2.06,2.06,0,0,1,2.87-.91c3,1.19,5.53-.43,5.84-3.73.13-1.36.51-2.22,2-2.52s2,.62,2.5,1.71c1.35,2.83,4.44,3.46,6.67,1.27a2.28,2.28,0,0,1,3.22-.37c1.36.82,1.05,1.8.61,2.95a4,4,0,0,0,3.72,5.65c1.3,0,2.2.29,2.5,1.76a2.17,2.17,0,0,1-1.49,2.83c-3.06,1.35-3.5,4.37-1.25,7a2.71,2.71,0,0,1,.6,2.15C165.69,80.8,164.88,81.4,164.39,82ZM145.22,71.33A6.81,6.81,0,0,0,152,78.17a7,7,0,0,0,6.59-6.67A6.72,6.72,0,0,0,152,64.74,6.53,6.53,0,0,0,145.22,71.33Z"/><path class="cls-2" d="M126.25,66.78c0,2,.5,3.64,2.59,4.07a3.16,3.16,0,0,0,1.59,0c2.21-.82,2.2-.85,3.06.54-.3,1.92-.77,3.31-.62,4.63.08.73,1.2,1.33,1.83,2s1.36,1.16,1.34,1.71-.88,1.34-1.5,1.52c-2.44.68-3.32,2.52-2.35,4.93a2.09,2.09,0,0,1-.37,1.91,2.2,2.2,0,0,1-2,.09q-3.59-2-5.33,1.74A2.14,2.14,0,0,1,122.84,91a2.26,2.26,0,0,1-1.45-1.41c-.74-2.58-2.3-3.38-4.82-2.45a2.11,2.11,0,0,1-1.92-.32,2.4,2.4,0,0,1-.15-2.15c1.32-2.3.79-4-1.66-5.19a2.14,2.14,0,0,1-1-1.68,2.26,2.26,0,0,1,1.39-1.46c2.55-.74,3.33-2.31,2.44-4.83a2.41,2.41,0,0,1,.53-2.09c.33-.32,1.44-.19,2,.13,2.09,1.21,4.22.64,5-1.64C123.67,66.09,124.86,66.68,126.25,66.78ZM129.42,79a5.53,5.53,0,1,0-11-.53,5.53,5.53,0,1,0,11,.53Z"/></g></g></svg>