<svg xmlns="http://www.w3.org/2000/svg" viewBox="0 0 280 160"><defs><style>.cls-1{fill:#fff;}.cls-2{fill:#2a7ecf;}</style></defs><g id="レイヤー_2" data-name="レイヤー 2"><g id="subject"><rect class="cls-1" width="280" height="160"/><path class="cls-2" d="M81.33,118.12V112c3.06-3.89,6.19-7.73,9.12-11.72a7.09,7.09,0,0,0,1.39-3.91c.09-16.36,0-32.72.06-49.07,0-4.59,1.44-6.09,6-6.09h79.06c4.52,0,6,1.53,6,6.07,0,16.36,0,32.72.07,49.07a7.12,7.12,0,0,0,1.37,3.92c2.93,4,6.07,7.83,9.13,11.73v6.57c-1.11,2.41-3.14,2.9-5.56,2.9q-50.59,0-101.17,0C84.19,121.45,82.19,120.79,81.33,118.12ZM98.17,47.65V92.06h78.49V47.65Zm49.71,69.55v-5.57H127v5.57Z"/><path class="cls-2" d="M145.29,68.8l2.08.39c0,3.4.18,6.74-.07,10.06-.16,2.3-1.9,3.68-4.39,3.77-3.65.12-7.3.14-10.94,0-2.84-.11-4.43-1.73-4.58-4.6s0-6,0-9.09l2.26-.63c.08-3.21.1-6.72,3.23-8.68a10.46,10.46,0,0,1,5.32-1.41C142.59,58.63,144.47,61.45,145.29,68.8ZM133.41,69c2.48,0,4.72,0,7,0a1.5,1.5,0,0,0,1.11-.94c.19-1.91.29-4.06-1.59-5.09a6.16,6.16,0,0,0-4.25-.42c-2,.56-2.42,2.5-2.36,4.44C133.3,67.49,133.36,68.06,133.41,69Z"/></g></g></svg>