<svg xmlns="http://www.w3.org/2000/svg" viewBox="0 0 260 275"><defs><style>.cls-1{fill:#fff;}.cls-2{fill:#2a7ecf;}</style></defs><g id="レイヤー_2" data-name="レイヤー 2"><g id="subject"><rect class="cls-1" width="260" height="275"/><path class="cls-2" d="M197.17,174.23v7.87c-1.33,2.88-3.76,3.46-6.67,3.46q-60.57,0-121.16,0c-3.08,0-5.48-.79-6.51-4v-7.34c3.66-4.67,7.42-9.27,10.93-14a8.57,8.57,0,0,0,1.65-4.69c.11-19.59.07-39.17.08-58.76,0-5.5,1.73-7.29,7.16-7.29q47.34,0,94.69,0c5.41,0,7.17,1.82,7.17,7.27,0,19.59,0,39.18.08,58.76a8.56,8.56,0,0,0,1.64,4.7C189.75,165,193.5,169.56,197.17,174.23ZM83,150.39h93.93V97.2H83Zm34.44,30h25.1v-6.58h-25.1Z"/><path class="cls-2" d="M160.55,134.68a19.73,19.73,0,0,1-2.12-.73,4.1,4.1,0,0,0-4.53.39c-1.87,1.19-2.84,2.39-2.49,4.58.27,1.64-.58,2.41-2.13,2.63-1.38.21-2.4.18-3.13-1.45-1.89-4.23-5.29-4.9-8.68-1.79-1.18,1.09-2.06,1.2-3.39.27s-2-1.92-1.1-3.24c2-2.86-.19-4.75-1.54-6.7-.41-.61-1.88-.68-2.85-.64-1.76.07-2.72-.44-3.1-2.31s.37-2.52,1.82-3.2c3.67-1.73,4.39-5.34,1.67-8.39-1-1.13-1.37-2-.39-3.43s1.85-1.74,3.48-1.1c3.68,1.44,6.73-.53,7.11-4.54.16-1.66.62-2.7,2.47-3.06s2.41.75,3,2.07c1.64,3.45,5.4,4.21,8.11,1.55a2.76,2.76,0,0,1,3.91-.45c1.65,1,1.28,2.19.75,3.59-1.34,3.55.75,6.76,4.52,6.87,1.57,0,2.67.35,3,2.13s-.14,2.7-1.81,3.44c-3.72,1.64-4.26,5.32-1.53,8.49a3.31,3.31,0,0,1,.74,2.62C162.14,133.22,161.15,134,160.55,134.68Zm-23.3-13A8.26,8.26,0,0,0,145.5,130a8.53,8.53,0,0,0,8-8.1,8.19,8.19,0,0,0-8.09-8.22A7.94,7.94,0,0,0,137.25,121.71Z"/><path class="cls-2" d="M114.18,116.18c0,2.49.61,4.43,3.15,4.94a3.61,3.61,0,0,0,1.93,0c2.69-1,2.68-1,3.73.67-.37,2.34-.94,4-.76,5.63.09.88,1.46,1.62,2.22,2.45.62.67,1.65,1.41,1.63,2.08s-1.06,1.63-1.83,1.85c-3,.83-4,3.06-2.85,6a2.52,2.52,0,0,1-.45,2.32,2.66,2.66,0,0,1-2.4.1c-2.9-1.63-5.07-.92-6.48,2.12a2.55,2.55,0,0,1-2,1.29,2.73,2.73,0,0,1-1.77-1.72c-.9-3.13-2.8-4.1-5.86-3a2.58,2.58,0,0,1-2.34-.39,2.94,2.94,0,0,1-.18-2.61c1.61-2.8,1-4.86-2-6.31a2.63,2.63,0,0,1-1.27-2.05,2.72,2.72,0,0,1,1.69-1.77c3.1-.9,4-2.82,3-5.88a2.94,2.94,0,0,1,.64-2.54c.41-.38,1.75-.22,2.41.16,2.54,1.47,5.12.78,6-2C111,115.34,112.48,116.06,114.18,116.18ZM118,131.07a6.72,6.72,0,1,0-13.43-.65,6.72,6.72,0,1,0,13.43.65Z"/></g></g></svg>