<svg xmlns="http://www.w3.org/2000/svg" viewBox="0 0 260 275"><defs><style>.cls-1{fill:#fff;}.cls-2{fill:#2a7ecf;}</style></defs><g id="レイヤー_2" data-name="レイヤー 2"><g id="subject"><rect class="cls-1" width="260" height="275"/><path class="cls-2" d="M83.12,197.5H80.78a49.67,49.67,0,0,1-5.5-2.35C72.07,193.32,71,190,70,186.72v-2.34a18.93,18.93,0,0,1,5.51-9.28c7.08-6.84,14-13.87,20.95-20.82.8-.79,1.42-1.39.64-2.74a48.11,48.11,0,0,1-6-30.43A49.45,49.45,0,0,1,129.23,79c2.73-.6,5.51-1,8.27-1.45h5.62c1.84.32,3.67.67,5.5,1,19.09,2.87,35.83,18.57,39.87,37.44.6,2.81,1,5.66,1.51,8.49V130c-.15.68-.35,1.35-.44,2-2.38,19.17-12.23,33.05-29.92,40.77-14.7,6.41-29.38,5.42-43.49-2.28-1.38-.75-2-.41-3,.52-6.59,6.66-13.28,13.23-19.82,19.94C90.44,194,87.45,196.75,83.12,197.5Zm57-39.66a30.61,30.61,0,1,0-30.48-30.67A30.39,30.39,0,0,0,140.14,157.84Z"/></g></g></svg>