<svg xmlns="http://www.w3.org/2000/svg" viewBox="0 0 260 275"><defs><style>.cls-1{fill:#fff;}.cls-2{fill:#2a7ecf;}</style></defs><g id="レイヤー_2" data-name="レイヤー 2"><g id="subject"><rect class="cls-1" width="260" height="275"/><path class="cls-2" d="M132.61,203.18c-4.16-.36-8.36-.52-12.49-1.12-7-1-14-2-20.93-3.55C87.9,196,80.8,188.62,77.64,177.7,73.73,164.18,75,151,83.52,139.61c4.08-5.48,9.66-9.89,14.85-14.46,12.56-11,22.34-24.22,30.4-38.74a38,38,0,0,0,2.16-6c.09-.24.11-.5.18-.75,1.13-4.14,4.55-7.48,8-7.8s7.14,2.22,8.92,6.53c3.14,7.63,2.39,15.3-.4,22.77-1.27,3.39-3.3,6.51-5,9.72-1.1,2-2.51,3.9-3.41,6-1.77,4.14-.18,8.43,4.06,9.88a34.29,34.29,0,0,0,9.77,1.62c6.58.24,13.17.06,19.76.07,3.66,0,7,1,9.38,3.9,4.78,5.77,2,12.79-6.25,15.11,5.08,2.39,7.75,6.17,6.88,11.68-.76,4.87-4.15,7.43-9.29,8.7,4.36,2.57,5.66,6.11,4.44,10.52s-4.49,6.66-8.82,7.57a33.88,33.88,0,0,1,.93,4.56A9.65,9.65,0,0,1,161.66,201c-4.47.68-9,1.1-13.47,1.66-.75.1-1.49.32-2.23.48Z"/></g></g></svg>